<svg xmlns="http://www.w3.org/2000/svg" version="1.1" xmlns:xlink="http://www.w3.org/1999/xlink" xmlns:svgjs="http://svgjs.com/svgjs" width="1920" height="1080" preserveAspectRatio="none" viewBox="0 0 1920 1080">
    <g mask="url(&quot;#SvgjsMask1292&quot;)" fill="none">
        <g mask="url(&quot;#SvgjsMask1293&quot;)">
            <path d="M987.5 512.5L1012.5 487.5L1037.5 487.5L1062.5 487.5L1087.5 462.5L1112.5 462.5L1137.5 462.5L1162.5 462.5L1187.5 462.5L1212.5 487.5L1237.5 487.5L1262.5 487.5L1287.5 487.5L1312.5 487.5L1337.5 487.5L1362.5 487.5L1387.5 487.5L1412.5 487.5L1437.5 487.5L1462.5 487.5L1487.5 487.5M1337.5 512.5L1362.5 537.5L1387.5 537.5L1412.5 562.5L1437.5 562.5L1462.5 562.5L1487.5 562.5M362.5 537.5L387.5 512.5L412.5 512.5L437.5 512.5L462.5 512.5L487.5 512.5L512.5 512.5L537.5 512.5L562.5 512.5M262.5 537.5L287.5 512.5L312.5 512.5L337.5 512.5M887.5 512.5L912.5 487.5L937.5 487.5L962.5 487.5L987.5 487.5M687.5 512.5L712.5 487.5L737.5 487.5L762.5 487.5L787.5 487.5L812.5 487.5L837.5 487.5L862.5 487.5L887.5 487.5M1437.5 537.5L1462.5 512.5L1487.5 512.5M662.5 537.5L687.5 537.5M1137.5 512.5L1162.5 487.5L1187.5 487.5M637.5 537.5L662.5 512.5L687.5 487.5M212.5 537.5L237.5 562.5L262.5 562.5L287.5 562.5M1412.5 537.5L1437.5 512.5M587.5 537.5L612.5 512.5L637.5 487.5L662.5 487.5M237.5 537.5L262.5 512.5L287.5 487.5L312.5 487.5L337.5 487.5L362.5 487.5L387.5 487.5L412.5 462.5L437.5 462.5L462.5 462.5L487.5 487.5L512.5 487.5L537.5 487.5M1387.5 512.5L1412.5 512.5M-12.5 537.5L12.5 537.5L37.5 537.5L62.5 537.5L87.5 537.5L112.5 537.5L137.5 537.5L162.5 537.5L187.5 537.5L212.5 537.5L237.5 537.5L262.5 537.5L287.5 537.5L312.5 537.5L337.5 537.5L362.5 537.5L387.5 537.5L412.5 537.5L437.5 537.5L462.5 537.5L487.5 537.5L512.5 537.5L537.5 537.5L562.5 537.5L587.5 537.5L612.5 537.5L637.5 537.5L662.5 537.5L687.5 512.5L712.5 512.5L737.5 512.5L762.5 512.5L787.5 512.5L812.5 512.5L837.5 512.5L862.5 512.5L887.5 512.5L912.5 512.5L937.5 512.5L962.5 512.5L987.5 512.5L1012.5 512.5L1037.5 512.5L1062.5 512.5L1087.5 512.5L1112.5 512.5L1137.5 512.5L1162.5 512.5L1187.5 512.5L1212.5 512.5L1237.5 512.5L1262.5 512.5L1287.5 512.5L1312.5 512.5L1337.5 512.5L1362.5 512.5L1387.5 512.5L1412.5 537.5L1437.5 537.5L1462.5 537.5" stroke="#3a7cc3" stroke-width="4.17"></path>
            <path d="M1456.25 537.5 a6.25 6.25 0 1 0 12.5 0 a6.25 6.25 0 1 0 -12.5 0zM1481.25 487.5 a6.25 6.25 0 1 0 12.5 0 a6.25 6.25 0 1 0 -12.5 0zM1481.25 562.5 a6.25 6.25 0 1 0 12.5 0 a6.25 6.25 0 1 0 -12.5 0zM556.25 512.5 a6.25 6.25 0 1 0 12.5 0 a6.25 6.25 0 1 0 -12.5 0zM331.25 512.5 a6.25 6.25 0 1 0 12.5 0 a6.25 6.25 0 1 0 -12.5 0zM981.25 487.5 a6.25 6.25 0 1 0 12.5 0 a6.25 6.25 0 1 0 -12.5 0zM881.25 487.5 a6.25 6.25 0 1 0 12.5 0 a6.25 6.25 0 1 0 -12.5 0zM1481.25 512.5 a6.25 6.25 0 1 0 12.5 0 a6.25 6.25 0 1 0 -12.5 0zM681.25 537.5 a6.25 6.25 0 1 0 12.5 0 a6.25 6.25 0 1 0 -12.5 0zM1181.25 487.5 a6.25 6.25 0 1 0 12.5 0 a6.25 6.25 0 1 0 -12.5 0zM681.25 487.5 a6.25 6.25 0 1 0 12.5 0 a6.25 6.25 0 1 0 -12.5 0zM281.25 562.5 a6.25 6.25 0 1 0 12.5 0 a6.25 6.25 0 1 0 -12.5 0zM1431.25 512.5 a6.25 6.25 0 1 0 12.5 0 a6.25 6.25 0 1 0 -12.5 0zM656.25 487.5 a6.25 6.25 0 1 0 12.5 0 a6.25 6.25 0 1 0 -12.5 0zM531.25 487.5 a6.25 6.25 0 1 0 12.5 0 a6.25 6.25 0 1 0 -12.5 0zM1406.25 512.5 a6.25 6.25 0 1 0 12.5 0 a6.25 6.25 0 1 0 -12.5 0z" fill="#3a7cc3"></path>
            <path d="M1162.5 537.5L1187.5 562.5L1212.5 562.5L1237.5 562.5L1262.5 562.5L1287.5 562.5L1312.5 562.5M1012.5 537.5L1037.5 562.5L1062.5 562.5L1087.5 562.5L1112.5 562.5L1137.5 562.5L1162.5 562.5L1187.5 587.5L1212.5 587.5L1237.5 587.5L1262.5 587.5L1287.5 587.5L1312.5 587.5L1337.5 587.5L1362.5 587.5L1387.5 587.5M912.5 537.5L937.5 562.5L962.5 562.5L987.5 562.5L1012.5 562.5L1037.5 587.5L1062.5 587.5L1087.5 587.5L1112.5 587.5L1137.5 587.5L1162.5 587.5L1187.5 612.5L1212.5 612.5L1237.5 612.5L1262.5 612.5M412.5 562.5L437.5 587.5L462.5 587.5L487.5 587.5L512.5 587.5M712.5 537.5L737.5 562.5L762.5 562.5L787.5 562.5L812.5 562.5L837.5 562.5L862.5 562.5L887.5 562.5L912.5 562.5L937.5 587.5L962.5 587.5L987.5 587.5L1012.5 587.5M162.5 562.5L187.5 562.5L212.5 562.5M387.5 562.5L412.5 587.5M287.5 587.5L312.5 587.5L337.5 587.5L362.5 587.5M537.5 562.5L562.5 587.5M-12.5 562.5L12.5 562.5L37.5 562.5L62.5 562.5L87.5 562.5L112.5 562.5L137.5 562.5L162.5 562.5L187.5 587.5L212.5 587.5L237.5 587.5L262.5 587.5L287.5 587.5L312.5 562.5L337.5 562.5L362.5 562.5L387.5 562.5L412.5 562.5L437.5 562.5L462.5 562.5L487.5 562.5L512.5 562.5L537.5 562.5L562.5 562.5L587.5 562.5L612.5 562.5L637.5 562.5L662.5 562.5L687.5 562.5L712.5 537.5L737.5 537.5L762.5 537.5L787.5 537.5L812.5 537.5L837.5 537.5L862.5 537.5L887.5 537.5L912.5 537.5L937.5 537.5L962.5 537.5L987.5 537.5L1012.5 537.5L1037.5 537.5L1062.5 537.5L1087.5 537.5L1112.5 537.5L1137.5 537.5L1162.5 537.5L1187.5 537.5L1212.5 537.5L1237.5 537.5L1262.5 537.5L1287.5 537.5L1312.5 537.5" stroke="#3a7cc3" stroke-width="4.17"></path>
            <path d="M1306.25 537.5 a6.25 6.25 0 1 0 12.5 0 a6.25 6.25 0 1 0 -12.5 0zM1306.25 562.5 a6.25 6.25 0 1 0 12.5 0 a6.25 6.25 0 1 0 -12.5 0zM1381.25 587.5 a6.25 6.25 0 1 0 12.5 0 a6.25 6.25 0 1 0 -12.5 0zM1256.25 612.5 a6.25 6.25 0 1 0 12.5 0 a6.25 6.25 0 1 0 -12.5 0zM506.25 587.5 a6.25 6.25 0 1 0 12.5 0 a6.25 6.25 0 1 0 -12.5 0zM1006.25 587.5 a6.25 6.25 0 1 0 12.5 0 a6.25 6.25 0 1 0 -12.5 0zM206.25 562.5 a6.25 6.25 0 1 0 12.5 0 a6.25 6.25 0 1 0 -12.5 0zM406.25 587.5 a6.25 6.25 0 1 0 12.5 0 a6.25 6.25 0 1 0 -12.5 0zM356.25 587.5 a6.25 6.25 0 1 0 12.5 0 a6.25 6.25 0 1 0 -12.5 0zM556.25 587.5 a6.25 6.25 0 1 0 12.5 0 a6.25 6.25 0 1 0 -12.5 0z" fill="#3a7cc3"></path>
            <path d="M212.5 487.5L237.5 512.5M187.5 487.5L212.5 512.5M162.5 512.5L187.5 512.5M-12.5 512.5L12.5 512.5L37.5 512.5L62.5 512.5L87.5 512.5L112.5 512.5L137.5 512.5L162.5 512.5L187.5 487.5L212.5 487.5L237.5 487.5" stroke="#dd1133" stroke-width="4.17"></path>
            <path d="M231.25 487.5 a6.25 6.25 0 1 0 12.5 0 a6.25 6.25 0 1 0 -12.5 0zM231.25 512.5 a6.25 6.25 0 1 0 12.5 0 a6.25 6.25 0 1 0 -12.5 0zM206.25 512.5 a6.25 6.25 0 1 0 12.5 0 a6.25 6.25 0 1 0 -12.5 0zM181.25 512.5 a6.25 6.25 0 1 0 12.5 0 a6.25 6.25 0 1 0 -12.5 0z" fill="#dd1133"></path>
            <path d="M137.5 587.5L162.5 612.5M62.5 587.5L87.5 612.5L112.5 612.5L137.5 612.5M-12.5 587.5L12.5 587.5L37.5 587.5L62.5 587.5L87.5 587.5L112.5 587.5L137.5 587.5L162.5 587.5L187.5 612.5L212.5 612.5L237.5 612.5L262.5 612.5L287.5 612.5L312.5 612.5L337.5 612.5L362.5 612.5L387.5 612.5L412.5 612.5L437.5 612.5L462.5 612.5L487.5 612.5L512.5 612.5" stroke="rgba(255, 214, 10, 1)" stroke-width="4.17"></path>
            <path d="M506.25 612.5 a6.25 6.25 0 1 0 12.5 0 a6.25 6.25 0 1 0 -12.5 0zM156.25 612.5 a6.25 6.25 0 1 0 12.5 0 a6.25 6.25 0 1 0 -12.5 0zM131.25 612.5 a6.25 6.25 0 1 0 12.5 0 a6.25 6.25 0 1 0 -12.5 0z" fill="rgba(255, 214, 10, 1)"></path>
            <path d="M787.5 462.5L812.5 437.5L837.5 437.5M462.5 437.5L487.5 437.5L512.5 437.5L537.5 437.5L562.5 437.5L587.5 437.5L612.5 437.5L637.5 437.5L662.5 437.5M287.5 437.5L312.5 462.5L337.5 462.5L362.5 462.5L387.5 462.5M587.5 462.5L612.5 487.5M987.5 462.5L1012.5 437.5M262.5 462.5L287.5 462.5M712.5 462.5L737.5 437.5M962.5 462.5L987.5 437.5M912.5 462.5L937.5 437.5L962.5 437.5M137.5 487.5L162.5 462.5M-12.5 487.5L12.5 487.5L37.5 487.5L62.5 487.5L87.5 487.5L112.5 487.5L137.5 487.5L162.5 487.5L187.5 462.5L212.5 462.5L237.5 462.5L262.5 462.5L287.5 437.5L312.5 437.5L337.5 437.5L362.5 437.5L387.5 437.5L412.5 437.5L437.5 437.5L462.5 437.5L487.5 462.5L512.5 462.5L537.5 462.5L562.5 462.5L587.5 462.5L612.5 462.5L637.5 462.5L662.5 462.5L687.5 462.5L712.5 462.5L737.5 462.5L762.5 462.5L787.5 462.5L812.5 462.5L837.5 462.5L862.5 462.5L887.5 462.5L912.5 462.5L937.5 462.5L962.5 462.5L987.5 462.5L1012.5 462.5" stroke="#dd1133" stroke-width="4.17"></path>
            <path d="M1006.25 462.5 a6.25 6.25 0 1 0 12.5 0 a6.25 6.25 0 1 0 -12.5 0zM831.25 437.5 a6.25 6.25 0 1 0 12.5 0 a6.25 6.25 0 1 0 -12.5 0zM656.25 437.5 a6.25 6.25 0 1 0 12.5 0 a6.25 6.25 0 1 0 -12.5 0zM381.25 462.5 a6.25 6.25 0 1 0 12.5 0 a6.25 6.25 0 1 0 -12.5 0zM606.25 487.5 a6.25 6.25 0 1 0 12.5 0 a6.25 6.25 0 1 0 -12.5 0zM1006.25 437.5 a6.25 6.25 0 1 0 12.5 0 a6.25 6.25 0 1 0 -12.5 0zM281.25 462.5 a6.25 6.25 0 1 0 12.5 0 a6.25 6.25 0 1 0 -12.5 0zM731.25 437.5 a6.25 6.25 0 1 0 12.5 0 a6.25 6.25 0 1 0 -12.5 0zM981.25 437.5 a6.25 6.25 0 1 0 12.5 0 a6.25 6.25 0 1 0 -12.5 0zM956.25 437.5 a6.25 6.25 0 1 0 12.5 0 a6.25 6.25 0 1 0 -12.5 0zM156.25 462.5 a6.25 6.25 0 1 0 12.5 0 a6.25 6.25 0 1 0 -12.5 0z" fill="#dd1133"></path>
            <path d="M887.5 612.5L912.5 587.5M562.5 612.5L587.5 612.5L612.5 612.5L637.5 612.5M537.5 637.5L562.5 637.5L587.5 637.5L612.5 637.5L637.5 637.5L662.5 637.5L687.5 637.5L712.5 637.5L737.5 637.5L762.5 637.5L787.5 637.5L812.5 637.5L837.5 637.5L862.5 637.5M462.5 637.5L487.5 662.5L512.5 687.5L537.5 687.5L562.5 687.5M712.5 587.5L737.5 587.5L762.5 587.5M837.5 612.5L862.5 587.5M662.5 587.5L687.5 612.5L712.5 612.5M937.5 612.5L962.5 637.5L987.5 637.5L1012.5 637.5M437.5 637.5L462.5 662.5L487.5 687.5L512.5 712.5L537.5 712.5L562.5 712.5L587.5 712.5L612.5 712.5L637.5 712.5L662.5 712.5L687.5 712.5L712.5 712.5L737.5 712.5L762.5 712.5L787.5 737.5L812.5 737.5M787.5 612.5L812.5 587.5M412.5 637.5L437.5 662.5L462.5 687.5L487.5 712.5L512.5 737.5L537.5 737.5M-12.5 612.5L12.5 612.5L37.5 612.5L62.5 637.5L87.5 637.5L112.5 637.5L137.5 637.5L162.5 637.5L187.5 637.5L212.5 637.5L237.5 637.5L262.5 637.5L287.5 637.5L312.5 637.5L337.5 637.5L362.5 637.5L387.5 637.5L412.5 637.5L437.5 637.5L462.5 637.5L487.5 637.5L512.5 637.5L537.5 637.5L562.5 612.5L587.5 587.5L612.5 587.5L637.5 587.5L662.5 587.5L687.5 587.5L712.5 587.5L737.5 612.5L762.5 612.5L787.5 612.5L812.5 612.5L837.5 612.5L862.5 612.5L887.5 612.5L912.5 612.5L937.5 612.5L962.5 612.5L987.5 612.5L1012.5 612.5L1037.5 612.5L1062.5 612.5L1087.5 612.5L1112.5 612.5" stroke="rgba(255, 214, 10, 1)" stroke-width="4.17"></path>
            <path d="M1106.25 612.5 a6.25 6.25 0 1 0 12.5 0 a6.25 6.25 0 1 0 -12.5 0zM906.25 587.5 a6.25 6.25 0 1 0 12.5 0 a6.25 6.25 0 1 0 -12.5 0zM631.25 612.5 a6.25 6.25 0 1 0 12.5 0 a6.25 6.25 0 1 0 -12.5 0zM856.25 637.5 a6.25 6.25 0 1 0 12.5 0 a6.25 6.25 0 1 0 -12.5 0zM556.25 687.5 a6.25 6.25 0 1 0 12.5 0 a6.25 6.25 0 1 0 -12.5 0zM756.25 587.5 a6.25 6.25 0 1 0 12.5 0 a6.25 6.25 0 1 0 -12.5 0zM856.25 587.5 a6.25 6.25 0 1 0 12.5 0 a6.25 6.25 0 1 0 -12.5 0zM706.25 612.5 a6.25 6.25 0 1 0 12.5 0 a6.25 6.25 0 1 0 -12.5 0zM1006.25 637.5 a6.25 6.25 0 1 0 12.5 0 a6.25 6.25 0 1 0 -12.5 0zM806.25 737.5 a6.25 6.25 0 1 0 12.5 0 a6.25 6.25 0 1 0 -12.5 0zM806.25 587.5 a6.25 6.25 0 1 0 12.5 0 a6.25 6.25 0 1 0 -12.5 0zM531.25 737.5 a6.25 6.25 0 1 0 12.5 0 a6.25 6.25 0 1 0 -12.5 0z" fill="rgba(255, 214, 10, 1)"></path>
            <path d="M787.5 387.5L812.5 387.5L837.5 387.5L862.5 387.5L887.5 387.5M387.5 412.5L412.5 387.5L437.5 387.5L462.5 387.5L487.5 387.5L512.5 387.5L537.5 387.5L562.5 362.5L587.5 362.5L612.5 362.5L637.5 362.5L662.5 362.5M562.5 387.5L587.5 412.5L612.5 412.5L637.5 412.5L662.5 412.5L687.5 412.5M1262.5 462.5L1287.5 437.5L1312.5 437.5M1137.5 412.5L1162.5 387.5L1187.5 387.5M712.5 387.5L737.5 412.5L762.5 412.5L787.5 412.5M962.5 412.5L987.5 387.5L1012.5 387.5L1037.5 387.5L1062.5 387.5L1087.5 387.5L1112.5 387.5L1137.5 387.5L1162.5 362.5L1187.5 362.5L1212.5 362.5L1237.5 362.5L1262.5 362.5L1287.5 362.5L1312.5 362.5L1337.5 362.5L1362.5 362.5L1387.5 362.5L1412.5 362.5L1437.5 362.5M1112.5 412.5L1137.5 437.5L1162.5 437.5L1187.5 437.5M1412.5 462.5L1437.5 437.5L1462.5 437.5L1487.5 437.5M1237.5 437.5L1262.5 437.5L1287.5 412.5L1312.5 412.5L1337.5 412.5L1362.5 412.5L1387.5 412.5L1412.5 412.5L1437.5 387.5L1462.5 387.5L1487.5 387.5M112.5 462.5L137.5 462.5M887.5 412.5L912.5 437.5M1062.5 412.5L1087.5 437.5L1112.5 437.5M1037.5 412.5L1062.5 437.5M-12.5 462.5L12.5 462.5L37.5 462.5L62.5 462.5L87.5 462.5L112.5 462.5L137.5 437.5L162.5 437.5L187.5 437.5L212.5 437.5L237.5 437.5L262.5 437.5L287.5 412.5L312.5 412.5L337.5 412.5L362.5 412.5L387.5 412.5L412.5 412.5L437.5 412.5L462.5 412.5L487.5 412.5L512.5 412.5L537.5 412.5L562.5 387.5L587.5 387.5L612.5 387.5L637.5 387.5L662.5 387.5L687.5 387.5L712.5 387.5L737.5 387.5L762.5 387.5L787.5 387.5L812.5 412.5L837.5 412.5L862.5 412.5L887.5 412.5L912.5 412.5L937.5 412.5L962.5 412.5L987.5 412.5L1012.5 412.5L1037.5 412.5L1062.5 412.5L1087.5 412.5L1112.5 412.5L1137.5 412.5L1162.5 412.5L1187.5 412.5L1212.5 437.5L1237.5 437.5L1262.5 462.5L1287.5 462.5L1312.5 462.5L1337.5 462.5L1362.5 462.5L1387.5 462.5L1412.5 462.5L1437.5 462.5" stroke="#dd1133" stroke-width="4.17"></path>
            <path d="M1431.25 462.5 a6.25 6.25 0 1 0 12.5 0 a6.25 6.25 0 1 0 -12.5 0zM881.25 387.5 a6.25 6.25 0 1 0 12.5 0 a6.25 6.25 0 1 0 -12.5 0zM656.25 362.5 a6.25 6.25 0 1 0 12.5 0 a6.25 6.25 0 1 0 -12.5 0zM681.25 412.5 a6.25 6.25 0 1 0 12.5 0 a6.25 6.25 0 1 0 -12.5 0zM1306.25 437.5 a6.25 6.25 0 1 0 12.5 0 a6.25 6.25 0 1 0 -12.5 0zM1181.25 387.5 a6.25 6.25 0 1 0 12.5 0 a6.25 6.25 0 1 0 -12.5 0zM781.25 412.5 a6.25 6.25 0 1 0 12.5 0 a6.25 6.25 0 1 0 -12.5 0zM1431.25 362.5 a6.25 6.25 0 1 0 12.5 0 a6.25 6.25 0 1 0 -12.5 0zM1181.25 437.5 a6.25 6.25 0 1 0 12.5 0 a6.25 6.25 0 1 0 -12.5 0zM1481.25 437.5 a6.25 6.25 0 1 0 12.5 0 a6.25 6.25 0 1 0 -12.5 0zM1481.25 387.5 a6.25 6.25 0 1 0 12.5 0 a6.25 6.25 0 1 0 -12.5 0zM131.25 462.5 a6.25 6.25 0 1 0 12.5 0 a6.25 6.25 0 1 0 -12.5 0zM906.25 437.5 a6.25 6.25 0 1 0 12.5 0 a6.25 6.25 0 1 0 -12.5 0zM1106.25 437.5 a6.25 6.25 0 1 0 12.5 0 a6.25 6.25 0 1 0 -12.5 0zM1056.25 437.5 a6.25 6.25 0 1 0 12.5 0 a6.25 6.25 0 1 0 -12.5 0z" fill="#dd1133"></path>
            <path d="M262.5 662.5L287.5 687.5L312.5 687.5L337.5 687.5M137.5 662.5L162.5 687.5L187.5 687.5L212.5 687.5M-12.5 637.5L12.5 637.5L37.5 637.5L62.5 662.5L87.5 662.5L112.5 662.5L137.5 662.5L162.5 662.5L187.5 662.5L212.5 662.5L237.5 662.5L262.5 662.5L287.5 662.5L312.5 662.5L337.5 662.5L362.5 662.5" stroke="#dd1133" stroke-width="4.17"></path>
            <path d="M356.25 662.5 a6.25 6.25 0 1 0 12.5 0 a6.25 6.25 0 1 0 -12.5 0zM331.25 687.5 a6.25 6.25 0 1 0 12.5 0 a6.25 6.25 0 1 0 -12.5 0zM206.25 687.5 a6.25 6.25 0 1 0 12.5 0 a6.25 6.25 0 1 0 -12.5 0z" fill="#dd1133"></path>
            <path d="M412.5 337.5L437.5 362.5M362.5 362.5L387.5 362.5L412.5 362.5M462.5 337.5L487.5 362.5L512.5 362.5L537.5 362.5M662.5 337.5L687.5 337.5M337.5 387.5L362.5 387.5L387.5 387.5M-12.5 437.5L12.5 437.5L37.5 437.5L62.5 437.5L87.5 437.5L112.5 437.5L137.5 412.5L162.5 412.5L187.5 412.5L212.5 412.5L237.5 412.5L262.5 412.5L287.5 387.5L312.5 387.5L337.5 387.5L362.5 362.5L387.5 337.5L412.5 337.5L437.5 337.5L462.5 337.5L487.5 337.5L512.5 337.5L537.5 337.5L562.5 337.5L587.5 337.5L612.5 337.5L637.5 337.5L662.5 337.5L687.5 362.5L712.5 362.5L737.5 362.5" stroke="#3a7cc3" stroke-width="4.17"></path>
            <path d="M731.25 362.5 a6.25 6.25 0 1 0 12.5 0 a6.25 6.25 0 1 0 -12.5 0zM431.25 362.5 a6.25 6.25 0 1 0 12.5 0 a6.25 6.25 0 1 0 -12.5 0zM406.25 362.5 a6.25 6.25 0 1 0 12.5 0 a6.25 6.25 0 1 0 -12.5 0zM531.25 362.5 a6.25 6.25 0 1 0 12.5 0 a6.25 6.25 0 1 0 -12.5 0zM681.25 337.5 a6.25 6.25 0 1 0 12.5 0 a6.25 6.25 0 1 0 -12.5 0zM381.25 387.5 a6.25 6.25 0 1 0 12.5 0 a6.25 6.25 0 1 0 -12.5 0z" fill="#3a7cc3"></path>
            <path d="M962.5 787.5L987.5 762.5M112.5 687.5L137.5 687.5M412.5 762.5L437.5 737.5L462.5 737.5M637.5 787.5L662.5 762.5L687.5 762.5L712.5 762.5M537.5 787.5L562.5 762.5L587.5 762.5L612.5 762.5L637.5 762.5M837.5 787.5L862.5 812.5L887.5 812.5L912.5 812.5L937.5 812.5L962.5 812.5M737.5 787.5L762.5 812.5L787.5 812.5L812.5 812.5L837.5 812.5M587.5 787.5L612.5 812.5L637.5 812.5L662.5 812.5L687.5 812.5L712.5 812.5L737.5 812.5L762.5 837.5M487.5 762.5L512.5 762.5L537.5 762.5M787.5 787.5L812.5 762.5L837.5 762.5L862.5 762.5M-12.5 662.5L12.5 662.5L37.5 662.5L62.5 687.5L87.5 687.5L112.5 687.5L137.5 712.5L162.5 712.5L187.5 712.5L212.5 712.5L237.5 712.5L262.5 737.5L287.5 737.5L312.5 737.5L337.5 737.5L362.5 762.5L387.5 762.5L412.5 762.5L437.5 762.5L462.5 762.5L487.5 762.5L512.5 787.5L537.5 787.5L562.5 787.5L587.5 787.5L612.5 787.5L637.5 787.5L662.5 787.5L687.5 787.5L712.5 787.5L737.5 787.5L762.5 787.5L787.5 787.5L812.5 787.5L837.5 787.5L862.5 787.5L887.5 787.5L912.5 787.5L937.5 787.5L962.5 787.5L987.5 787.5" stroke="#3a7cc3" stroke-width="4.17"></path>
            <path d="M981.25 787.5 a6.25 6.25 0 1 0 12.5 0 a6.25 6.25 0 1 0 -12.5 0zM981.25 762.5 a6.25 6.25 0 1 0 12.5 0 a6.25 6.25 0 1 0 -12.5 0zM131.25 687.5 a6.25 6.25 0 1 0 12.5 0 a6.25 6.25 0 1 0 -12.5 0zM456.25 737.5 a6.25 6.25 0 1 0 12.5 0 a6.25 6.25 0 1 0 -12.5 0zM706.25 762.5 a6.25 6.25 0 1 0 12.5 0 a6.25 6.25 0 1 0 -12.5 0zM631.25 762.5 a6.25 6.25 0 1 0 12.5 0 a6.25 6.25 0 1 0 -12.5 0zM956.25 812.5 a6.25 6.25 0 1 0 12.5 0 a6.25 6.25 0 1 0 -12.5 0zM831.25 812.5 a6.25 6.25 0 1 0 12.5 0 a6.25 6.25 0 1 0 -12.5 0zM756.25 837.5 a6.25 6.25 0 1 0 12.5 0 a6.25 6.25 0 1 0 -12.5 0zM531.25 762.5 a6.25 6.25 0 1 0 12.5 0 a6.25 6.25 0 1 0 -12.5 0zM856.25 762.5 a6.25 6.25 0 1 0 12.5 0 a6.25 6.25 0 1 0 -12.5 0z" fill="#3a7cc3"></path>
            <path d="M712.5 337.5L737.5 312.5L762.5 312.5M537.5 312.5L562.5 287.5L587.5 287.5L612.5 287.5M637.5 312.5L662.5 287.5M687.5 312.5L712.5 287.5L737.5 287.5L762.5 287.5L787.5 287.5L812.5 287.5M-12.5 412.5L12.5 412.5L37.5 412.5L62.5 412.5L87.5 412.5L112.5 412.5L137.5 387.5L162.5 387.5L187.5 387.5L212.5 387.5L237.5 387.5L262.5 387.5L287.5 362.5L312.5 362.5L337.5 362.5L362.5 337.5L387.5 312.5L412.5 312.5L437.5 312.5L462.5 312.5L487.5 312.5L512.5 312.5L537.5 312.5L562.5 312.5L587.5 312.5L612.5 312.5L637.5 312.5L662.5 312.5L687.5 312.5L712.5 337.5L737.5 337.5" stroke="#dd1133" stroke-width="4.17"></path>
            <path d="M731.25 337.5 a6.25 6.25 0 1 0 12.5 0 a6.25 6.25 0 1 0 -12.5 0zM756.25 312.5 a6.25 6.25 0 1 0 12.5 0 a6.25 6.25 0 1 0 -12.5 0zM606.25 287.5 a6.25 6.25 0 1 0 12.5 0 a6.25 6.25 0 1 0 -12.5 0zM656.25 287.5 a6.25 6.25 0 1 0 12.5 0 a6.25 6.25 0 1 0 -12.5 0zM806.25 287.5 a6.25 6.25 0 1 0 12.5 0 a6.25 6.25 0 1 0 -12.5 0z" fill="#dd1133"></path>
            <path d="M437.5 812.5L462.5 787.5L487.5 787.5M412.5 787.5L437.5 787.5M162.5 762.5L187.5 737.5M512.5 812.5L537.5 837.5L562.5 837.5M137.5 737.5L162.5 737.5M-12.5 687.5L12.5 687.5L37.5 687.5L62.5 712.5L87.5 712.5L112.5 712.5L137.5 737.5L162.5 762.5L187.5 762.5L212.5 762.5L237.5 762.5L262.5 762.5L287.5 762.5L312.5 762.5L337.5 762.5L362.5 787.5L387.5 787.5L412.5 787.5L437.5 812.5L462.5 812.5L487.5 812.5L512.5 812.5L537.5 812.5" stroke="#3a7cc3" stroke-width="4.17"></path>
            <path d="M531.25 812.5 a6.25 6.25 0 1 0 12.5 0 a6.25 6.25 0 1 0 -12.5 0zM481.25 787.5 a6.25 6.25 0 1 0 12.5 0 a6.25 6.25 0 1 0 -12.5 0zM431.25 787.5 a6.25 6.25 0 1 0 12.5 0 a6.25 6.25 0 1 0 -12.5 0zM181.25 737.5 a6.25 6.25 0 1 0 12.5 0 a6.25 6.25 0 1 0 -12.5 0zM556.25 837.5 a6.25 6.25 0 1 0 12.5 0 a6.25 6.25 0 1 0 -12.5 0zM156.25 737.5 a6.25 6.25 0 1 0 12.5 0 a6.25 6.25 0 1 0 -12.5 0z" fill="#3a7cc3"></path>
            <path d="M187.5 362.5L212.5 337.5L237.5 337.5L262.5 337.5M87.5 387.5L112.5 387.5M162.5 362.5L187.5 337.5M-12.5 387.5L12.5 387.5L37.5 387.5L62.5 387.5L87.5 387.5L112.5 362.5L137.5 362.5L162.5 362.5L187.5 362.5L212.5 362.5L237.5 362.5L262.5 362.5L287.5 337.5L312.5 337.5L337.5 337.5L362.5 312.5" stroke="#3a7cc3" stroke-width="4.17"></path>
            <path d="M356.25 312.5 a6.25 6.25 0 1 0 12.5 0 a6.25 6.25 0 1 0 -12.5 0zM256.25 337.5 a6.25 6.25 0 1 0 12.5 0 a6.25 6.25 0 1 0 -12.5 0zM106.25 387.5 a6.25 6.25 0 1 0 12.5 0 a6.25 6.25 0 1 0 -12.5 0zM181.25 337.5 a6.25 6.25 0 1 0 12.5 0 a6.25 6.25 0 1 0 -12.5 0z" fill="#3a7cc3"></path>
            <path d="M287.5 787.5L312.5 812.5L337.5 812.5M262.5 787.5L287.5 812.5M237.5 787.5L262.5 812.5M-12.5 712.5L12.5 712.5L37.5 712.5L62.5 737.5L87.5 737.5L112.5 737.5L137.5 762.5L162.5 787.5L187.5 787.5L212.5 787.5L237.5 787.5L262.5 787.5L287.5 787.5L312.5 787.5L337.5 787.5L362.5 812.5L387.5 812.5L412.5 812.5L437.5 837.5L462.5 837.5L487.5 837.5" stroke="#3a7cc3" stroke-width="4.17"></path>
            <path d="M481.25 837.5 a6.25 6.25 0 1 0 12.5 0 a6.25 6.25 0 1 0 -12.5 0zM331.25 812.5 a6.25 6.25 0 1 0 12.5 0 a6.25 6.25 0 1 0 -12.5 0zM281.25 812.5 a6.25 6.25 0 1 0 12.5 0 a6.25 6.25 0 1 0 -12.5 0zM256.25 812.5 a6.25 6.25 0 1 0 12.5 0 a6.25 6.25 0 1 0 -12.5 0z" fill="#3a7cc3"></path>
            <path d="M487.5 287.5L512.5 262.5L537.5 262.5L562.5 262.5L587.5 262.5M137.5 337.5L162.5 337.5M62.5 362.5L87.5 337.5M37.5 362.5L62.5 337.5M-12.5 362.5L12.5 362.5L37.5 362.5L62.5 362.5L87.5 362.5L112.5 337.5L137.5 337.5L162.5 312.5L187.5 312.5L212.5 312.5L237.5 312.5L262.5 312.5L287.5 312.5L312.5 312.5L337.5 312.5L362.5 287.5L387.5 287.5L412.5 287.5L437.5 287.5L462.5 287.5L487.5 287.5L512.5 287.5" stroke="rgba(255, 214, 10, 1)" stroke-width="4.17"></path>
            <path d="M506.25 287.5 a6.25 6.25 0 1 0 12.5 0 a6.25 6.25 0 1 0 -12.5 0zM581.25 262.5 a6.25 6.25 0 1 0 12.5 0 a6.25 6.25 0 1 0 -12.5 0zM156.25 337.5 a6.25 6.25 0 1 0 12.5 0 a6.25 6.25 0 1 0 -12.5 0zM81.25 337.5 a6.25 6.25 0 1 0 12.5 0 a6.25 6.25 0 1 0 -12.5 0zM56.25 337.5 a6.25 6.25 0 1 0 12.5 0 a6.25 6.25 0 1 0 -12.5 0z" fill="rgba(255, 214, 10, 1)"></path>
            <path d="M-12.5 737.5L12.5 737.5L37.5 737.5L62.5 762.5L87.5 762.5L112.5 762.5L137.5 787.5" stroke="#3a7cc3" stroke-width="4.17"></path>
            <path d="M131.25 787.5 a6.25 6.25 0 1 0 12.5 0 a6.25 6.25 0 1 0 -12.5 0z" fill="#3a7cc3"></path>
            <path d="M462.5 262.5L487.5 262.5M12.5 337.5L37.5 337.5M562.5 237.5L587.5 212.5L612.5 212.5M-12.5 337.5L12.5 337.5L37.5 312.5L62.5 312.5L87.5 312.5L112.5 312.5L137.5 312.5L162.5 287.5L187.5 287.5L212.5 287.5L237.5 287.5L262.5 287.5L287.5 287.5L312.5 287.5L337.5 287.5L362.5 262.5L387.5 262.5L412.5 262.5L437.5 262.5L462.5 262.5L487.5 237.5L512.5 237.5L537.5 237.5L562.5 237.5L587.5 237.5" stroke="#dd1133" stroke-width="4.17"></path>
            <path d="M581.25 237.5 a6.25 6.25 0 1 0 12.5 0 a6.25 6.25 0 1 0 -12.5 0zM481.25 262.5 a6.25 6.25 0 1 0 12.5 0 a6.25 6.25 0 1 0 -12.5 0zM31.25 337.5 a6.25 6.25 0 1 0 12.5 0 a6.25 6.25 0 1 0 -12.5 0zM606.25 212.5 a6.25 6.25 0 1 0 12.5 0 a6.25 6.25 0 1 0 -12.5 0z" fill="#dd1133"></path>
            <path d="M437.5 862.5L462.5 887.5M212.5 812.5L237.5 812.5M87.5 787.5L112.5 812.5M387.5 837.5L412.5 862.5L437.5 887.5M-12.5 762.5L12.5 762.5L37.5 762.5L62.5 787.5L87.5 787.5L112.5 787.5L137.5 812.5L162.5 812.5L187.5 812.5L212.5 812.5L237.5 837.5L262.5 837.5L287.5 837.5L312.5 837.5L337.5 837.5L362.5 837.5L387.5 837.5L412.5 837.5L437.5 862.5L462.5 862.5" stroke="#dd1133" stroke-width="4.17"></path>
            <path d="M456.25 862.5 a6.25 6.25 0 1 0 12.5 0 a6.25 6.25 0 1 0 -12.5 0zM456.25 887.5 a6.25 6.25 0 1 0 12.5 0 a6.25 6.25 0 1 0 -12.5 0zM231.25 812.5 a6.25 6.25 0 1 0 12.5 0 a6.25 6.25 0 1 0 -12.5 0zM106.25 812.5 a6.25 6.25 0 1 0 12.5 0 a6.25 6.25 0 1 0 -12.5 0zM431.25 887.5 a6.25 6.25 0 1 0 12.5 0 a6.25 6.25 0 1 0 -12.5 0z" fill="#dd1133"></path>
            <path d="M887.5 187.5L912.5 212.5L937.5 212.5L962.5 212.5L987.5 237.5L1012.5 262.5M862.5 187.5L887.5 212.5L912.5 237.5L937.5 237.5M612.5 187.5L637.5 162.5L662.5 162.5L687.5 162.5L712.5 162.5L737.5 162.5L762.5 162.5L787.5 162.5L812.5 162.5L837.5 162.5L862.5 162.5L887.5 162.5L912.5 162.5M1087.5 212.5L1112.5 237.5M737.5 187.5L762.5 212.5M1162.5 212.5L1187.5 237.5M562.5 187.5L587.5 162.5L612.5 162.5L637.5 137.5L662.5 137.5L687.5 137.5L712.5 137.5L737.5 137.5M1237.5 212.5L1262.5 237.5L1287.5 237.5L1312.5 237.5L1337.5 262.5L1362.5 262.5L1387.5 262.5L1412.5 262.5L1437.5 262.5L1462.5 262.5M687.5 187.5L712.5 212.5L737.5 237.5M512.5 212.5L537.5 187.5L562.5 162.5L587.5 137.5L612.5 137.5L637.5 112.5M662.5 187.5L687.5 212.5L712.5 237.5L737.5 262.5L762.5 262.5L787.5 262.5M987.5 212.5L1012.5 187.5M1062.5 212.5L1087.5 187.5L1112.5 187.5L1137.5 187.5L1162.5 187.5L1187.5 187.5L1212.5 187.5L1237.5 187.5L1262.5 187.5L1287.5 187.5L1312.5 187.5L1337.5 187.5M-12.5 312.5L12.5 287.5L37.5 287.5L62.5 287.5L87.5 287.5L112.5 287.5L137.5 287.5L162.5 262.5L187.5 262.5L212.5 262.5L237.5 262.5L262.5 262.5L287.5 262.5L312.5 262.5L337.5 262.5L362.5 237.5L387.5 237.5L412.5 237.5L437.5 237.5L462.5 237.5L487.5 212.5L512.5 212.5L537.5 212.5L562.5 187.5L587.5 187.5L612.5 187.5L637.5 187.5L662.5 187.5L687.5 187.5L712.5 187.5L737.5 187.5L762.5 187.5L787.5 187.5L812.5 187.5L837.5 187.5L862.5 187.5L887.5 187.5L912.5 187.5L937.5 187.5L962.5 187.5L987.5 212.5L1012.5 212.5L1037.5 212.5L1062.5 212.5L1087.5 212.5L1112.5 212.5L1137.5 212.5L1162.5 212.5L1187.5 212.5L1212.5 212.5L1237.5 212.5L1262.5 212.5L1287.5 212.5" stroke="#3a7cc3" stroke-width="4.17"></path>
            <path d="M1281.25 212.5 a6.25 6.25 0 1 0 12.5 0 a6.25 6.25 0 1 0 -12.5 0zM1006.25 262.5 a6.25 6.25 0 1 0 12.5 0 a6.25 6.25 0 1 0 -12.5 0zM931.25 237.5 a6.25 6.25 0 1 0 12.5 0 a6.25 6.25 0 1 0 -12.5 0zM906.25 162.5 a6.25 6.25 0 1 0 12.5 0 a6.25 6.25 0 1 0 -12.5 0zM1106.25 237.5 a6.25 6.25 0 1 0 12.5 0 a6.25 6.25 0 1 0 -12.5 0zM756.25 212.5 a6.25 6.25 0 1 0 12.5 0 a6.25 6.25 0 1 0 -12.5 0zM1181.25 237.5 a6.25 6.25 0 1 0 12.5 0 a6.25 6.25 0 1 0 -12.5 0zM731.25 137.5 a6.25 6.25 0 1 0 12.5 0 a6.25 6.25 0 1 0 -12.5 0zM1456.25 262.5 a6.25 6.25 0 1 0 12.5 0 a6.25 6.25 0 1 0 -12.5 0zM731.25 237.5 a6.25 6.25 0 1 0 12.5 0 a6.25 6.25 0 1 0 -12.5 0zM631.25 112.5 a6.25 6.25 0 1 0 12.5 0 a6.25 6.25 0 1 0 -12.5 0zM781.25 262.5 a6.25 6.25 0 1 0 12.5 0 a6.25 6.25 0 1 0 -12.5 0zM1006.25 187.5 a6.25 6.25 0 1 0 12.5 0 a6.25 6.25 0 1 0 -12.5 0zM1331.25 187.5 a6.25 6.25 0 1 0 12.5 0 a6.25 6.25 0 1 0 -12.5 0z" fill="#3a7cc3"></path>
            <path d="M112.5 837.5L137.5 862.5L162.5 862.5L187.5 862.5M237.5 862.5L262.5 887.5L287.5 887.5L312.5 912.5M87.5 837.5L112.5 862.5M62.5 812.5L87.5 812.5M-12.5 787.5L12.5 787.5L37.5 787.5L62.5 812.5L87.5 837.5L112.5 837.5L137.5 837.5L162.5 837.5L187.5 837.5L212.5 837.5L237.5 862.5L262.5 862.5L287.5 862.5L312.5 862.5L337.5 862.5L362.5 862.5" stroke="#3a7cc3" stroke-width="4.17"></path>
            <path d="M356.25 862.5 a6.25 6.25 0 1 0 12.5 0 a6.25 6.25 0 1 0 -12.5 0zM181.25 862.5 a6.25 6.25 0 1 0 12.5 0 a6.25 6.25 0 1 0 -12.5 0zM306.25 912.5 a6.25 6.25 0 1 0 12.5 0 a6.25 6.25 0 1 0 -12.5 0zM106.25 862.5 a6.25 6.25 0 1 0 12.5 0 a6.25 6.25 0 1 0 -12.5 0zM81.25 812.5 a6.25 6.25 0 1 0 12.5 0 a6.25 6.25 0 1 0 -12.5 0z" fill="#3a7cc3"></path>
            <path d="M212.5 237.5L237.5 212.5L262.5 212.5L287.5 212.5L312.5 212.5L337.5 212.5L362.5 187.5L387.5 187.5L412.5 187.5M12.5 262.5L37.5 237.5L62.5 212.5L87.5 212.5M87.5 262.5L112.5 237.5M437.5 212.5L462.5 187.5L487.5 162.5L512.5 162.5M-12.5 287.5L12.5 262.5L37.5 262.5L62.5 262.5L87.5 262.5L112.5 262.5L137.5 262.5L162.5 237.5L187.5 237.5L212.5 237.5L237.5 237.5L262.5 237.5L287.5 237.5L312.5 237.5L337.5 237.5L362.5 212.5L387.5 212.5L412.5 212.5L437.5 212.5L462.5 212.5L487.5 187.5" stroke="#dd1133" stroke-width="4.17"></path>
            <path d="M481.25 187.5 a6.25 6.25 0 1 0 12.5 0 a6.25 6.25 0 1 0 -12.5 0zM406.25 187.5 a6.25 6.25 0 1 0 12.5 0 a6.25 6.25 0 1 0 -12.5 0zM81.25 212.5 a6.25 6.25 0 1 0 12.5 0 a6.25 6.25 0 1 0 -12.5 0zM106.25 237.5 a6.25 6.25 0 1 0 12.5 0 a6.25 6.25 0 1 0 -12.5 0zM506.25 162.5 a6.25 6.25 0 1 0 12.5 0 a6.25 6.25 0 1 0 -12.5 0z" fill="#dd1133"></path>
        </g>
    </g>
    <defs>
        <mask id="SvgjsMask1292">
            <rect width="1920" height="1080" fill="#ffffff"></rect>
        </mask>
        <mask id="SvgjsMask1293">
            <rect width="1920" height="1080" fill="white"></rect>
            <path d="M1459.37 537.5 a3.13 3.13 0 1 0 6.26 0 a3.13 3.13 0 1 0 -6.26 0zM1484.37 487.5 a3.13 3.13 0 1 0 6.26 0 a3.13 3.13 0 1 0 -6.26 0zM1484.37 562.5 a3.13 3.13 0 1 0 6.26 0 a3.13 3.13 0 1 0 -6.26 0zM559.37 512.5 a3.13 3.13 0 1 0 6.26 0 a3.13 3.13 0 1 0 -6.26 0zM334.37 512.5 a3.13 3.13 0 1 0 6.26 0 a3.13 3.13 0 1 0 -6.26 0zM984.37 487.5 a3.13 3.13 0 1 0 6.26 0 a3.13 3.13 0 1 0 -6.26 0zM884.37 487.5 a3.13 3.13 0 1 0 6.26 0 a3.13 3.13 0 1 0 -6.26 0zM1484.37 512.5 a3.13 3.13 0 1 0 6.26 0 a3.13 3.13 0 1 0 -6.26 0zM684.37 537.5 a3.13 3.13 0 1 0 6.26 0 a3.13 3.13 0 1 0 -6.26 0zM1184.37 487.5 a3.13 3.13 0 1 0 6.26 0 a3.13 3.13 0 1 0 -6.26 0zM684.37 487.5 a3.13 3.13 0 1 0 6.26 0 a3.13 3.13 0 1 0 -6.26 0zM284.37 562.5 a3.13 3.13 0 1 0 6.26 0 a3.13 3.13 0 1 0 -6.26 0zM1434.37 512.5 a3.13 3.13 0 1 0 6.26 0 a3.13 3.13 0 1 0 -6.26 0zM659.37 487.5 a3.13 3.13 0 1 0 6.26 0 a3.13 3.13 0 1 0 -6.26 0zM534.37 487.5 a3.13 3.13 0 1 0 6.26 0 a3.13 3.13 0 1 0 -6.26 0zM1409.37 512.5 a3.13 3.13 0 1 0 6.26 0 a3.13 3.13 0 1 0 -6.26 0z" fill="black"></path>
            <path d="M1309.37 537.5 a3.13 3.13 0 1 0 6.26 0 a3.13 3.13 0 1 0 -6.26 0zM1309.37 562.5 a3.13 3.13 0 1 0 6.26 0 a3.13 3.13 0 1 0 -6.26 0zM1384.37 587.5 a3.13 3.13 0 1 0 6.26 0 a3.13 3.13 0 1 0 -6.26 0zM1259.37 612.5 a3.13 3.13 0 1 0 6.26 0 a3.13 3.13 0 1 0 -6.26 0zM509.37 587.5 a3.13 3.13 0 1 0 6.26 0 a3.13 3.13 0 1 0 -6.26 0zM1009.37 587.5 a3.13 3.13 0 1 0 6.26 0 a3.13 3.13 0 1 0 -6.26 0zM209.37 562.5 a3.13 3.13 0 1 0 6.26 0 a3.13 3.13 0 1 0 -6.26 0zM409.37 587.5 a3.13 3.13 0 1 0 6.26 0 a3.13 3.13 0 1 0 -6.26 0zM359.37 587.5 a3.13 3.13 0 1 0 6.26 0 a3.13 3.13 0 1 0 -6.26 0zM559.37 587.5 a3.13 3.13 0 1 0 6.26 0 a3.13 3.13 0 1 0 -6.26 0z" fill="black"></path>
            <path d="M234.37 487.5 a3.13 3.13 0 1 0 6.26 0 a3.13 3.13 0 1 0 -6.26 0zM234.37 512.5 a3.13 3.13 0 1 0 6.26 0 a3.13 3.13 0 1 0 -6.26 0zM209.37 512.5 a3.13 3.13 0 1 0 6.26 0 a3.13 3.13 0 1 0 -6.26 0zM184.37 512.5 a3.13 3.13 0 1 0 6.26 0 a3.13 3.13 0 1 0 -6.26 0z" fill="black"></path>
            <path d="M509.37 612.5 a3.13 3.13 0 1 0 6.26 0 a3.13 3.13 0 1 0 -6.26 0zM159.37 612.5 a3.13 3.13 0 1 0 6.26 0 a3.13 3.13 0 1 0 -6.26 0zM134.37 612.5 a3.13 3.13 0 1 0 6.26 0 a3.13 3.13 0 1 0 -6.26 0z" fill="black"></path>
            <path d="M1009.37 462.5 a3.13 3.13 0 1 0 6.26 0 a3.13 3.13 0 1 0 -6.26 0zM834.37 437.5 a3.13 3.13 0 1 0 6.26 0 a3.13 3.13 0 1 0 -6.26 0zM659.37 437.5 a3.13 3.13 0 1 0 6.26 0 a3.13 3.13 0 1 0 -6.26 0zM384.37 462.5 a3.13 3.13 0 1 0 6.26 0 a3.13 3.13 0 1 0 -6.26 0zM609.37 487.5 a3.13 3.13 0 1 0 6.26 0 a3.13 3.13 0 1 0 -6.26 0zM1009.37 437.5 a3.13 3.13 0 1 0 6.26 0 a3.13 3.13 0 1 0 -6.26 0zM284.37 462.5 a3.13 3.13 0 1 0 6.26 0 a3.13 3.13 0 1 0 -6.26 0zM734.37 437.5 a3.13 3.13 0 1 0 6.26 0 a3.13 3.13 0 1 0 -6.26 0zM984.37 437.5 a3.13 3.13 0 1 0 6.26 0 a3.13 3.13 0 1 0 -6.26 0zM959.37 437.5 a3.13 3.13 0 1 0 6.26 0 a3.13 3.13 0 1 0 -6.26 0zM159.37 462.5 a3.13 3.13 0 1 0 6.26 0 a3.13 3.13 0 1 0 -6.26 0z" fill="black"></path>
            <path d="M1109.37 612.5 a3.13 3.13 0 1 0 6.26 0 a3.13 3.13 0 1 0 -6.26 0zM909.37 587.5 a3.13 3.13 0 1 0 6.26 0 a3.13 3.13 0 1 0 -6.26 0zM634.37 612.5 a3.13 3.13 0 1 0 6.26 0 a3.13 3.13 0 1 0 -6.26 0zM859.37 637.5 a3.13 3.13 0 1 0 6.26 0 a3.13 3.13 0 1 0 -6.26 0zM559.37 687.5 a3.13 3.13 0 1 0 6.26 0 a3.13 3.13 0 1 0 -6.26 0zM759.37 587.5 a3.13 3.13 0 1 0 6.26 0 a3.13 3.13 0 1 0 -6.26 0zM859.37 587.5 a3.13 3.13 0 1 0 6.26 0 a3.13 3.13 0 1 0 -6.26 0zM709.37 612.5 a3.13 3.13 0 1 0 6.26 0 a3.13 3.13 0 1 0 -6.26 0zM1009.37 637.5 a3.13 3.13 0 1 0 6.26 0 a3.13 3.13 0 1 0 -6.26 0zM809.37 737.5 a3.13 3.13 0 1 0 6.26 0 a3.13 3.13 0 1 0 -6.26 0zM809.37 587.5 a3.13 3.13 0 1 0 6.26 0 a3.13 3.13 0 1 0 -6.26 0zM534.37 737.5 a3.13 3.13 0 1 0 6.26 0 a3.13 3.13 0 1 0 -6.26 0z" fill="black"></path>
            <path d="M1434.37 462.5 a3.13 3.13 0 1 0 6.26 0 a3.13 3.13 0 1 0 -6.26 0zM884.37 387.5 a3.13 3.13 0 1 0 6.26 0 a3.13 3.13 0 1 0 -6.26 0zM659.37 362.5 a3.13 3.13 0 1 0 6.26 0 a3.13 3.13 0 1 0 -6.26 0zM684.37 412.5 a3.13 3.13 0 1 0 6.26 0 a3.13 3.13 0 1 0 -6.26 0zM1309.37 437.5 a3.13 3.13 0 1 0 6.26 0 a3.13 3.13 0 1 0 -6.26 0zM1184.37 387.5 a3.13 3.13 0 1 0 6.26 0 a3.13 3.13 0 1 0 -6.26 0zM784.37 412.5 a3.13 3.13 0 1 0 6.26 0 a3.13 3.13 0 1 0 -6.26 0zM1434.37 362.5 a3.13 3.13 0 1 0 6.26 0 a3.13 3.13 0 1 0 -6.26 0zM1184.37 437.5 a3.13 3.13 0 1 0 6.26 0 a3.13 3.13 0 1 0 -6.26 0zM1484.37 437.5 a3.13 3.13 0 1 0 6.26 0 a3.13 3.13 0 1 0 -6.26 0zM1484.37 387.5 a3.13 3.13 0 1 0 6.26 0 a3.13 3.13 0 1 0 -6.26 0zM134.37 462.5 a3.13 3.13 0 1 0 6.26 0 a3.13 3.13 0 1 0 -6.26 0zM909.37 437.5 a3.13 3.13 0 1 0 6.26 0 a3.13 3.13 0 1 0 -6.26 0zM1109.37 437.5 a3.13 3.13 0 1 0 6.26 0 a3.13 3.13 0 1 0 -6.26 0zM1059.37 437.5 a3.13 3.13 0 1 0 6.26 0 a3.13 3.13 0 1 0 -6.26 0z" fill="black"></path>
            <path d="M359.37 662.5 a3.13 3.13 0 1 0 6.26 0 a3.13 3.13 0 1 0 -6.26 0zM334.37 687.5 a3.13 3.13 0 1 0 6.26 0 a3.13 3.13 0 1 0 -6.26 0zM209.37 687.5 a3.13 3.13 0 1 0 6.26 0 a3.13 3.13 0 1 0 -6.26 0z" fill="black"></path>
            <path d="M734.37 362.5 a3.13 3.13 0 1 0 6.26 0 a3.13 3.13 0 1 0 -6.26 0zM434.37 362.5 a3.13 3.13 0 1 0 6.26 0 a3.13 3.13 0 1 0 -6.26 0zM409.37 362.5 a3.13 3.13 0 1 0 6.26 0 a3.13 3.13 0 1 0 -6.26 0zM534.37 362.5 a3.13 3.13 0 1 0 6.26 0 a3.13 3.13 0 1 0 -6.26 0zM684.37 337.5 a3.13 3.13 0 1 0 6.26 0 a3.13 3.13 0 1 0 -6.26 0zM384.37 387.5 a3.13 3.13 0 1 0 6.26 0 a3.13 3.13 0 1 0 -6.26 0z" fill="black"></path>
            <path d="M984.37 787.5 a3.13 3.13 0 1 0 6.26 0 a3.13 3.13 0 1 0 -6.26 0zM984.37 762.5 a3.13 3.13 0 1 0 6.26 0 a3.13 3.13 0 1 0 -6.26 0zM134.37 687.5 a3.13 3.13 0 1 0 6.26 0 a3.13 3.13 0 1 0 -6.26 0zM459.37 737.5 a3.13 3.13 0 1 0 6.26 0 a3.13 3.13 0 1 0 -6.26 0zM709.37 762.5 a3.13 3.13 0 1 0 6.26 0 a3.13 3.13 0 1 0 -6.26 0zM634.37 762.5 a3.13 3.13 0 1 0 6.26 0 a3.13 3.13 0 1 0 -6.26 0zM959.37 812.5 a3.13 3.13 0 1 0 6.26 0 a3.13 3.13 0 1 0 -6.26 0zM834.37 812.5 a3.13 3.13 0 1 0 6.26 0 a3.13 3.13 0 1 0 -6.26 0zM759.37 837.5 a3.13 3.13 0 1 0 6.26 0 a3.13 3.13 0 1 0 -6.26 0zM534.37 762.5 a3.13 3.13 0 1 0 6.26 0 a3.13 3.13 0 1 0 -6.26 0zM859.37 762.5 a3.13 3.13 0 1 0 6.26 0 a3.13 3.13 0 1 0 -6.26 0z" fill="black"></path>
            <path d="M734.37 337.5 a3.13 3.13 0 1 0 6.26 0 a3.13 3.13 0 1 0 -6.26 0zM759.37 312.5 a3.13 3.13 0 1 0 6.26 0 a3.13 3.13 0 1 0 -6.26 0zM609.37 287.5 a3.13 3.13 0 1 0 6.26 0 a3.13 3.13 0 1 0 -6.26 0zM659.37 287.5 a3.13 3.13 0 1 0 6.26 0 a3.13 3.13 0 1 0 -6.26 0zM809.37 287.5 a3.13 3.13 0 1 0 6.26 0 a3.13 3.13 0 1 0 -6.26 0z" fill="black"></path>
            <path d="M534.37 812.5 a3.13 3.13 0 1 0 6.26 0 a3.13 3.13 0 1 0 -6.26 0zM484.37 787.5 a3.13 3.13 0 1 0 6.26 0 a3.13 3.13 0 1 0 -6.26 0zM434.37 787.5 a3.13 3.13 0 1 0 6.26 0 a3.13 3.13 0 1 0 -6.26 0zM184.37 737.5 a3.13 3.13 0 1 0 6.26 0 a3.13 3.13 0 1 0 -6.26 0zM559.37 837.5 a3.13 3.13 0 1 0 6.26 0 a3.13 3.13 0 1 0 -6.26 0zM159.37 737.5 a3.13 3.13 0 1 0 6.26 0 a3.13 3.13 0 1 0 -6.26 0z" fill="black"></path>
            <path d="M359.37 312.5 a3.13 3.13 0 1 0 6.26 0 a3.13 3.13 0 1 0 -6.26 0zM259.37 337.5 a3.13 3.13 0 1 0 6.26 0 a3.13 3.13 0 1 0 -6.26 0zM109.37 387.5 a3.13 3.13 0 1 0 6.26 0 a3.13 3.13 0 1 0 -6.26 0zM184.37 337.5 a3.13 3.13 0 1 0 6.26 0 a3.13 3.13 0 1 0 -6.26 0z" fill="black"></path>
            <path d="M484.37 837.5 a3.13 3.13 0 1 0 6.26 0 a3.13 3.13 0 1 0 -6.26 0zM334.37 812.5 a3.13 3.13 0 1 0 6.26 0 a3.13 3.13 0 1 0 -6.26 0zM284.37 812.5 a3.13 3.13 0 1 0 6.26 0 a3.13 3.13 0 1 0 -6.26 0zM259.37 812.5 a3.13 3.13 0 1 0 6.26 0 a3.13 3.13 0 1 0 -6.26 0z" fill="black"></path>
            <path d="M509.37 287.5 a3.13 3.13 0 1 0 6.26 0 a3.13 3.13 0 1 0 -6.26 0zM584.37 262.5 a3.13 3.13 0 1 0 6.26 0 a3.13 3.13 0 1 0 -6.26 0zM159.37 337.5 a3.13 3.13 0 1 0 6.26 0 a3.13 3.13 0 1 0 -6.26 0zM84.37 337.5 a3.13 3.13 0 1 0 6.26 0 a3.13 3.13 0 1 0 -6.26 0zM59.37 337.5 a3.13 3.13 0 1 0 6.26 0 a3.13 3.13 0 1 0 -6.26 0z" fill="black"></path>
            <path d="M134.37 787.5 a3.13 3.13 0 1 0 6.26 0 a3.13 3.13 0 1 0 -6.26 0z" fill="black"></path>
            <path d="M584.37 237.5 a3.13 3.13 0 1 0 6.26 0 a3.13 3.13 0 1 0 -6.26 0zM484.37 262.5 a3.13 3.13 0 1 0 6.26 0 a3.13 3.13 0 1 0 -6.26 0zM34.37 337.5 a3.13 3.13 0 1 0 6.26 0 a3.13 3.13 0 1 0 -6.26 0zM609.37 212.5 a3.13 3.13 0 1 0 6.26 0 a3.13 3.13 0 1 0 -6.26 0z" fill="black"></path>
            <path d="M459.37 862.5 a3.13 3.13 0 1 0 6.26 0 a3.13 3.13 0 1 0 -6.26 0zM459.37 887.5 a3.13 3.13 0 1 0 6.26 0 a3.13 3.13 0 1 0 -6.26 0zM234.37 812.5 a3.13 3.13 0 1 0 6.26 0 a3.13 3.13 0 1 0 -6.26 0zM109.37 812.5 a3.13 3.13 0 1 0 6.26 0 a3.13 3.13 0 1 0 -6.26 0zM434.37 887.5 a3.13 3.13 0 1 0 6.26 0 a3.13 3.13 0 1 0 -6.26 0z" fill="black"></path>
            <path d="M1284.37 212.5 a3.13 3.13 0 1 0 6.26 0 a3.13 3.13 0 1 0 -6.26 0zM1009.37 262.5 a3.13 3.13 0 1 0 6.26 0 a3.13 3.13 0 1 0 -6.26 0zM934.37 237.5 a3.13 3.13 0 1 0 6.26 0 a3.13 3.13 0 1 0 -6.26 0zM909.37 162.5 a3.13 3.13 0 1 0 6.26 0 a3.13 3.13 0 1 0 -6.26 0zM1109.37 237.5 a3.13 3.13 0 1 0 6.26 0 a3.13 3.13 0 1 0 -6.26 0zM759.37 212.5 a3.13 3.13 0 1 0 6.26 0 a3.13 3.13 0 1 0 -6.26 0zM1184.37 237.5 a3.13 3.13 0 1 0 6.26 0 a3.13 3.13 0 1 0 -6.26 0zM734.37 137.5 a3.13 3.13 0 1 0 6.26 0 a3.13 3.13 0 1 0 -6.26 0zM1459.37 262.5 a3.13 3.13 0 1 0 6.26 0 a3.13 3.13 0 1 0 -6.26 0zM734.37 237.5 a3.13 3.13 0 1 0 6.26 0 a3.13 3.13 0 1 0 -6.26 0zM634.37 112.5 a3.13 3.13 0 1 0 6.26 0 a3.13 3.13 0 1 0 -6.26 0zM784.37 262.5 a3.13 3.13 0 1 0 6.26 0 a3.13 3.13 0 1 0 -6.26 0zM1009.37 187.5 a3.13 3.13 0 1 0 6.26 0 a3.13 3.13 0 1 0 -6.26 0zM1334.37 187.5 a3.13 3.13 0 1 0 6.26 0 a3.13 3.13 0 1 0 -6.26 0z" fill="black"></path>
            <path d="M359.37 862.5 a3.13 3.13 0 1 0 6.26 0 a3.13 3.13 0 1 0 -6.26 0zM184.37 862.5 a3.13 3.13 0 1 0 6.26 0 a3.13 3.13 0 1 0 -6.26 0zM309.37 912.5 a3.13 3.13 0 1 0 6.26 0 a3.13 3.13 0 1 0 -6.26 0zM109.37 862.5 a3.13 3.13 0 1 0 6.26 0 a3.13 3.13 0 1 0 -6.26 0zM84.37 812.5 a3.13 3.13 0 1 0 6.26 0 a3.13 3.13 0 1 0 -6.26 0z" fill="black"></path>
            <path d="M484.37 187.5 a3.13 3.13 0 1 0 6.26 0 a3.13 3.13 0 1 0 -6.26 0zM409.37 187.5 a3.13 3.13 0 1 0 6.26 0 a3.13 3.13 0 1 0 -6.26 0zM84.37 212.5 a3.13 3.13 0 1 0 6.26 0 a3.13 3.13 0 1 0 -6.26 0zM109.37 237.5 a3.13 3.13 0 1 0 6.26 0 a3.13 3.13 0 1 0 -6.26 0zM509.37 162.5 a3.13 3.13 0 1 0 6.26 0 a3.13 3.13 0 1 0 -6.26 0z" fill="black"></path>
        </mask>
    </defs>
</svg>