<svg id="Layer_1" data-name="Layer 1" xmlns="http://www.w3.org/2000/svg" viewBox="0 0 1041.847 604.179">
  <g>
    <path d="M263.391,431.183a13.392,13.392,0,0,0,13.392-13.392,297.369,297.369,0,0,1,36.1-142.478c17.965-32.834,36.214-50.863,36.4-51.041a13.393,13.393,0,0,0-18.673-19.2c-.839.816-20.8,20.374-40.668,56.382A324.116,324.116,0,0,0,250,417.791,13.392,13.392,0,0,0,263.391,431.183Z" fill="#dee8f5"></path>
    <g>
      <path d="M440.8,298.282c7.2-14.485-11.859-41.741-42.58-60.879s-61.466-22.91-68.67-8.425" fill="#8ddbe0"></path>
      <path d="M460.76,219.491c-.615-16.564-29.592-28.666-64.722-27.031s-63.108,16.386-62.493,32.95" fill="#8ddbe0"></path>
      <path d="M205.479,225.058c2.532-15.978,33.869-27.126,69.995-24.9s63.36,16.984,60.828,32.963" fill="#8ddbe0"></path>
      <path d="M234.913,149.294c10.108-13.136,40.732-6.189,68.4,15.516s41.908,49.95,31.8,63.087" fill="#8ddbe0"></path>
      <path d="M317.375,104.05c16.441-2.1,33.118,24.508,37.248,59.432s-5.849,64.939-22.291,67.04" fill="#8ddbe0"></path>
    </g>
    <path d="M295.082,228.806c0,7.374,5.977,9.955,13.351,9.955a13.352,13.352,0,0,0,0-26.7C301.059,212.058,295.082,221.433,295.082,228.806Z" fill="#c1d8ed"></path>
    <circle cx="342.899" cy="237.693" r="13.351" fill="#c1d8ed"></circle>
    <circle cx="327.937" cy="224.342" r="13.351" fill="#c1d8ed"></circle>
  </g>
  <g>
    <path d="M210.765,383.325a13.392,13.392,0,0,1-13.392-13.392,297.372,297.372,0,0,0-36.1-142.478c-17.965-32.834-36.214-50.862-36.4-51.04a13.392,13.392,0,0,1,18.672-19.2c.839.815,20.8,20.374,40.668,56.382a324.108,324.108,0,0,1,39.936,156.339A13.391,13.391,0,0,1,210.765,383.325Z" fill="#dee8f5"></path>
    <g>
      <path d="M33.358,250.424c-7.2-14.484,11.859-41.741,42.58-60.878s61.466-22.91,68.671-8.426" fill="#8ddbe0"></path>
      <path d="M13.4,171.633c.615-16.563,29.592-28.665,64.722-27.031s63.109,16.387,62.493,32.95" fill="#8ddbe0"></path>
      <path d="M268.677,177.2c-2.531-15.979-33.869-27.126-70-24.9s-63.359,16.985-60.828,32.963" fill="#8ddbe0"></path>
      <path d="M239.243,101.437c-10.108-13.136-40.732-6.19-68.4,15.516s-41.908,49.95-31.8,63.086" fill="#8ddbe0"></path>
      <path d="M156.781,56.193c-16.441-2.1-33.118,24.508-37.248,59.432s5.85,64.939,22.291,67.039" fill="#8ddbe0"></path>
    </g>
    <circle cx="165.723" cy="180.949" r="13.351" fill="#c1d8ed"></circle>
    <circle cx="131.257" cy="189.836" r="13.351" fill="#c1d8ed"></circle>
    <circle cx="146.219" cy="176.485" r="13.351" fill="#c1d8ed"></circle>
  </g>
  <ellipse cx="229.397" cy="449.681" rx="175.985" ry="79.025" fill="#dee8f5"></ellipse>
  <path d="M935.08,488.727a20,20,0,0,1-20-20,444.112,444.112,0,0,0-53.908-212.783c-26.83-49.035-54.083-75.96-54.356-76.226A20,20,0,0,1,834.7,151.04c1.254,1.217,31.058,30.427,60.735,84.2A484.039,484.039,0,0,1,955.08,468.727,20,20,0,0,1,935.08,488.727Z" fill="#dee8f5"></path>
  <path d="M941.673,424.658c-29.351,0-29.351,14-58.7,14s-29.35-14-58.7-14-29.35,14-58.7,14-29.349-14-58.7-14-29.347,14-58.7,14-29.348-14-58.7-14-29.349,14-58.7,14-29.348-14-58.695-14-29.349,14-58.7,14-29.348-14-58.7-14-29.347,14-58.693,14-29.346-14-58.692-14-29.345,14-58.69,14-29.347-14-58.693-14-29.345,14-58.69,14-31.1-19.191-59.961-13.885L0,603.7H415.239" fill="#9ebcea"></path>
  <path d="M1041.847,411.658V604.179H309.325S432.978,411.658,1041.847,411.658Z" fill="#dee8f5"></path>
  <g>
    <g>
      <path d="M913.283,424.074s-7.732-4.1-6.006-25.156L891.3,395.956s1.795,18.878-6.287,24.872Z" fill="#E98862"></path>
      <g opacity="0.15">
        <path d="M888.287,416.881l13.273-10.154-10.425-.108A28.735,28.735,0,0,1,888.287,416.881Z"></path>
      </g>
      <path d="M916.342,390.753c-1.106,6.389-4.592,12.438-10.227,14.5-6.69,2.449-11.645,2.615-19.358,2.615-10.525,0-10.177-10.976-10.473-22.038-.3-11.106.587-23.018,4.747-26.888,8.3-7.725,32.673-2.833,35.637,10.087C918.2,375.713,917.4,384.672,916.342,390.753Z" fill="#E98862"></path>
      <path d="M906.532,404.649c.332,1.062.564,1.525,1.52.957,3.757-2.232,12.21-7.088,15.09-25.283,2.58-16.3-7.476-23.026-15.5-25.425-6.913-2.068-23.047-2.493-30.619,2.071-6.525,3.933,0,13.081,0,13.081,2.883.132,3.465,2.611,10.269,2.611,5.259,0,8.68-2.35,13.6-2.143,4.508.189,5.434,2.937,5.275,4.7C905.205,385.9,905.358,400.893,906.532,404.649Z" fill="#0f1011"></path>
      <g>
        <circle cx="891.324" cy="384.383" r="1.449" fill="#0f1011"></circle>
        <circle cx="879.892" cy="383.446" r="1.449" fill="#0f1011"></circle>
        <path d="M877.381,380.358a.681.681,0,0,1-.009-1.362l3.839-.047h.009a.681.681,0,0,1,.009,1.361l-3.839.048Z" fill="#0f1011"></path>
        <path d="M894.452,381.758a.687.687,0,0,1-.161-.019l-3.784-.911a.681.681,0,1,1,.319-1.324l3.784.911a.681.681,0,0,1-.158,1.343Z" fill="#0f1011"></path>
      </g>
      <path d="M898.861,387.929a6.143,6.143,0,0,0,12.245,1,6.041,6.041,0,0,0-5.621-6.624C901.107,382.166,899.139,384.548,898.861,387.929Z" fill="#E98862"></path>
      <g opacity="0.15">
        <path d="M884.891,392.42a.5.5,0,0,1-.147-.022l-3.487-1.071a.5.5,0,0,1-.309-.683l2.293-5.107a.5.5,0,0,1,.912.409l-2.061,4.591,2.945.905a.5.5,0,0,1-.146.978Z"></path>
      </g>
      <path d="M890.653,395.8s-5.348.564-9.1-.746c0,0,.029,3.523,4.262,3.87S890.653,395.8,890.653,395.8Z" fill="#fff"></path>
    </g>
    <g>
      <path d="M850.4,579.077c-1.9-.318-23.335-3.98-23.335-3.98l3.535-20.7s21.377,3.652,23.271,3.969Z" fill="#E98862"></path>
      <path d="M814.832,598.933a4.108,4.108,0,0,0,3.693,4.752h0a4.109,4.109,0,0,0,3.92-2.039l12.112-22.755a3.461,3.461,0,0,0,.159-2.885,19.1,19.1,0,0,1-1.46-11.872,17.029,17.029,0,0,1,4.635-8.167,1.546,1.546,0,0,0-.767-2.691L825.336,551.3a2.679,2.679,0,0,0-3.086,2.21Z" fill="#c1d8ed"></path>
    </g>
    <path d="M916.752,523.09c8.9.37,17.954.63,27.015.854l13.615.3,13.6.244,1.355.025a22.2,22.2,0,0,1,2.277,44.231l-134.4,16.32-5.476-39.72,133.8-20.655,3.632,44.256-13.809.892-13.8.835c-9.215.532-18.433,1.031-27.816,1.416Z" fill="#262626"></path>
    <g>
      <path d="M950.655,570.379c-18.555-2.7-20.4-3.2-21.013-3.359l5.457-20.278c-.062-.017-.142-.039-.238-.06,1.52.332,10.95,1.772,18.815,2.916Z" fill="#E98862"></path>
      <path d="M973.833,588.43a4.108,4.108,0,0,1-2.724,5.366h0a4.108,4.108,0,0,1-4.236-1.258L950.662,572.5a3.467,3.467,0,0,1-.7-2.8,19.1,19.1,0,0,0-.82-11.933,17.026,17.026,0,0,0-6.1-7.139,1.547,1.547,0,0,1,.242-2.788l11.2-4.176a2.679,2.679,0,0,1,3.449,1.584Z" fill="#c1d8ed"></path>
    </g>
    <path d="M886.909,568.489c-5.632-.479-11.261-.825-16.89-1.149-5.628-.3-11.257-.6-16.883-.8l-8.44-.326-8.439-.243c-5.626-.187-11.25-.265-16.874-.372l1.949-40.409c10.529,1.473,21.072,2.825,31.612,4.211s21.091,2.663,31.641,3.96l15.833,1.867L916.263,537c10.568,1.137,21.137,2.264,31.73,3.194l-4.648,39.831c-10.522-1.535-21.067-2.871-31.613-4.2l-15.828-1.92-15.838-1.829c-10.564-1.167-21.127-2.352-31.7-3.433s-21.147-2.189-31.732-3.18a20.231,20.231,0,0,1,.7-40.339l1.253-.071c5.615-.329,11.232-.629,16.846-1.038l8.423-.577,8.42-.658c5.614-.423,11.227-.948,16.838-1.468,5.612-.546,11.224-1.115,16.832-1.816Z" fill="#262626"></path>
    <polygon points="937.186 516.955 940.146 566.66 854.656 565.656 861.109 521.651 937.186 516.955" fill="#262626"></polygon>
    <path d="M965.725,505.717l-22.657-70.245a20.063,20.063,0,0,0-5.628-9.574c-4.57-4.57-12.46-7.52-22.08-7.53-.72,5.61-34.78,5.63-35.04.13-1.3.02-2.31.04-2.94.07-13.76.593-19.3,5.89-21.058,13.862l-28.883,69.892a10.5,10.5,0,0,0,11.185,14.4l15.78-2.249c-.777,3.931-.9,6.987.637,10.52,4.189,9.63,86.519,13.63,87.619-3.31.011-.166.012-.331.018-.5l13.68-1.273a10.9,10.9,0,0,0,9.367-14.2ZM853.872,493.342l5.221-12.634c-.058,4.519-.3,8.484-.647,11.982Zm86.927,6.126-3.992.371a64.078,64.078,0,0,1-2.947-19.351c0-.765.033-1.524.081-2.28Z" fill="#367CFF"></path>
    <g>
      <g>
        <path d="M908.747,451.977l3.533,52.678a4.544,4.544,0,0,1-4.534,4.849H834.169a4.545,4.545,0,0,1-4.521-4.077L824.2,452.748a4.545,4.545,0,0,1,4.52-5.012h75.488A4.545,4.545,0,0,1,908.747,451.977Z" fill="#9ebcea"></path>
        <rect x="837.143" y="503.16" width="83.65" height="6.344" rx="3.172" transform="translate(1757.936 1012.664) rotate(180)" fill="#9ebcea"></rect>
      </g>
      <circle cx="866.293" cy="478.62" r="7" fill="#fff"></circle>
    </g>
    <path d="M876.378,516.194c4.49,2.77,11.44,4.081,17.5,4.56l.341-11.04c-2.851-.08-7.231-.38-11.52-.21-1.939-1.58-3.055-2.05-5.044-4.04-2.119-2.118-7.677-3.389-8.726,0S872.438,513.754,876.378,516.194Z" fill="#E98862"></path>
    <path d="M880.32,418.5c.26,5.5,3.25,13.59,12.48,14.2,12.3.81,21.84-8.72,22.56-14.33h-.03C903.22,418.368,887.38,418.388,880.32,418.5Z" fill="#E98862"></path>
  </g>
  <g>
    <path d="M670.133,290.247c-10.76-21.632,17.71-62.338,63.59-90.919s91.8-34.214,102.556-12.582" fill="#8ddbe0"></path>
    <path d="M640.32,172.577c.919-24.736,44.195-42.81,96.658-40.369s94.25,24.472,93.331,49.209" fill="#8ddbe0"></path>
    <path d="M1021.567,180.892c-3.78-23.863-50.581-40.511-104.533-37.186s-94.623,25.366-90.843,49.229" fill="#8ddbe0"></path>
    <path d="M977.609,67.743c-15.1-19.618-60.831-9.244-102.154,23.172s-62.586,74.6-47.491,94.216" fill="#8ddbe0"></path>
    <path d="M854.457.174C829.9-2.963,805,36.775,798.83,88.932s8.736,96.982,33.29,100.119" fill="#8ddbe0"></path>
  </g>
  <circle cx="867.812" cy="184.813" r="19.939" fill="#c1d8ed"></circle>
  <path d="M836.279,199.762c0,11.012-8.927,23.336-19.939,23.336s-19.94-12.324-19.94-23.336a19.94,19.94,0,0,1,39.879,0Z" fill="#c1d8ed"></path>
  <circle cx="838.683" cy="183.219" r="19.939" fill="#c1d8ed"></circle>
</svg>